<?xml version="1.0" encoding="utf-8"?>
<!-- Generator: Adobe Illustrator 25.2.0, SVG Export Plug-In . SVG Version: 6.00 Build 0)  -->
<svg version="1.1" id="Layer_1" xmlns="http://www.w3.org/2000/svg" xmlns:xlink="http://www.w3.org/1999/xlink" viewBox="300 430 510 200" preserveAspectRatio="xMidYMid meet" xml:space="preserve">
<style type="text/css">
	.st0{fill:#D62828;}
	.st1{fill:#FF3A3A;}
</style>
<g>
	<path class="st0" d="M578.62,480.4c14.19,0,27.06,3.44,38.63,10.32c11.56,6.88,20.78,16.1,27.67,27.67
		c6.88,11.57,10.32,24.44,10.32,38.63c0,14.05-3.44,26.85-10.32,38.41c-6.88,11.57-16.1,20.79-27.67,27.67
		c-11.57,6.88-24.44,10.32-38.63,10.32c-14.04,0-26.85-3.44-38.41-10.32c-11.56-6.88-20.79-16.1-27.67-27.67
		c-6.88-11.56-10.32-24.37-10.32-38.41c0-14.19,3.44-27.06,10.32-38.63c6.88-11.56,16.1-20.78,27.67-27.67
		C551.77,483.84,564.58,480.4,578.62,480.4z M578.62,598.09c11.35,0,21.07-4.01,29.16-12.02c8.09-8.02,12.13-17.7,12.13-29.05
		c0-11.35-4.04-21.07-12.13-29.16c-8.09-8.09-17.81-12.13-29.16-12.13c-11.35,0-21.04,4.04-29.05,12.13
		c-8.02,8.09-12.02,17.81-12.02,29.16c0,11.35,4.01,21.04,12.02,29.05C557.59,594.08,567.27,598.09,578.62,598.09z"/>
	<path class="st0" d="M741.01,597.45c6.1-0.99,11.77-2.91,17.02-5.75l6.81,34.05c-6.95,3.27-14.26,5.53-21.92,6.81
		c-0.99,0.14-1.99,0.29-2.98,0.43c-2.98,0.29-5.96,0.43-8.94,0.43c-11.92,0-21.6-1.88-29.05-5.64c-7.45-3.76-13.27-8.62-17.45-14.58
		c-4.19-5.96-7.13-12.34-8.83-19.15c-1.7-6.81-2.73-13.37-3.09-19.69c-0.36-6.31-0.46-11.67-0.32-16.07c0-0.43,0-0.85,0-1.28V445.07
		h35.33v35.33h35.33v35.33h-35.33v41.29c0,0.43,0,0.85,0,1.28c0,7.38,0.64,14.08,1.92,20.11c1.28,6.03,3.58,10.82,6.92,14.37
		c3.33,3.55,8.19,5.32,14.58,5.32h0.43C734.69,598.09,737.88,597.88,741.01,597.45z"/>
	<path class="st0" d="M807.73,603.3c3.48,3.48,5.21,7.63,5.21,12.45c0,4.82-1.74,8.97-5.21,12.45c-3.48,3.48-7.63,5.21-12.45,5.21
		c-4.82,0-8.98-1.74-12.45-5.21c-3.48-3.48-5.21-7.63-5.21-12.45c0-4.82,1.74-8.97,5.21-12.45c3.48-3.48,7.63-5.22,12.45-5.22
		C800.1,598.09,804.25,599.83,807.73,603.3z"/>
</g>
<path class="st1" d="M481.57,451.15l-30.35,3.06c0,0.03,0.01,0.05,0.01,0.09c0.57,5.65-0.24,11.37-2.26,16.68
	c-32.63,85.72-89.48,70.18-91.85,69.49l-0.67-0.19c-0.46-0.12-0.91-0.25-1.35-0.37c3.15-1.25,6.28-2.69,9.38-4.32
	c15.62-8.19,28.22-20.12,37.69-35.6c3.91-6.4,6.74-13.43,8.03-20.82c4.01-22.91-9.32-30.17-14.08-32c-0.47-0.17-0.95-0.32-1.44-0.48
	c-0.04-0.02-0.1-0.03-0.14-0.04c-0.03-0.01-0.04-0.01-0.04-0.01c-7.56-2.35-17.49-3.77-28.83-1.28
	c-20.6,4.52-38.47,20.25-53.12,46.75l-0.44,0.84c-0.78,1.65-5.3,11.7-5.85,24.5c-16.54-0.52-29.18-4.27-29.94-4.5
	c-0.02,0-0.03-0.01-0.03-0.01l-4.11,13.04l-0.48,1.51l-4.63,14.54c1.34,0.43,21.74,6.75,47.54,5.92
	c5.72,8.19,15.85,16.97,33.77,21.76c2.23,0.66,10.26,2.78,21.74,2.78c8.63,0,19.21-1.2,30.72-5.13
	c14.73-5.03,32.63-15.29,49.19-35.93c-4.94,27.35-15.56,47.22-31.79,59.38c-40.18,30.09-104.7,4.42-105.35,4.16l-5.76,14.13
	l-5.79,14.11c1.99,0.82,31.69,12.74,66.81,12.74c22.46,0,47.14-4.87,68.24-20.61C474.49,586.9,489.7,531.66,481.57,451.15z
	 M337.33,513.8c0.06-0.34,0.13-0.67,0.2-1c0.84-3.49,4.82-15.8,21.61-31.13c4.16-3.26,8.4-5.43,12.66-6.43
	c3.36-0.79,6.48-0.82,9.21-0.45c-7.05,15.38-17.29,26.69-30.56,33.7C346.19,510.75,341.78,512.49,337.33,513.8z"/>
</svg>